#N canvas 321 100 745 525 12;
#X declare -lib artnetlib;
#X obj 129 438 print;
#X text 188 6 <-- use this on your top level patch so that the lib gets loaded;
#X msg 195 354 physical \$1;
#X msg 135 305 universe \$1;
#X floatatom 195 333 5 0 0 0 - - - 0;
#X floatatom 137 284 5 0 0 0 - - - 0;
#X obj 128 405 artnetroute 0 0;
#X text 250 152 This object is intended to be connected to the [artnetudp] first outlet.;
#X msg 96 247 65 114 116 45 78 101 116 0 0 80 0 14 1 0 0 0 0 4 204 127 102 0, f 65;
#X text 91 223 this Art-Net DMX package uses "physical" and "universe" set to 0, f 69;
#X obj 18 6 declare -lib artnetlib;
#X obj 218 462 help-abs;
#X text 444 353 inlets:;
#X text 454 380 1st: <list>;
#X text 441 441 outlet:;
#X text 456 461 1st: <list>;
#X text 456 477 2nd: <list>;
#X text 455 398 2nd: <int> "universe";
#X text 454 416 3rd: <int> "physical";
#X text 249 82 [artnetroute] routes Art-Net DMX packages. If a package matches "universe" and "physical" it comes out in the 1st inlet. If not it comes out in the 2nd outlet., f 63;
#X text 432 320 creation args: <universe> <physical>;
#X connect 2 0 6 0;
#X connect 3 0 6 0;
#X connect 4 0 2 0;
#X connect 5 0 3 0;
#X connect 6 0 0 0;
#X connect 8 0 6 0;
