#N canvas 245 13 940 689 12;
#X declare -lib artnetlib;
#X msg 88 165 poll 0;
#X msg 33 109 set \$1;
#X msg 155 106 mainfade \$1;
#X floatatom 156 60 5 0 0 0 - - - 0;
#X obj 156 82 / 100;
#X msg 172 154 fullframe \$1;
#X obj 173 130 tgl 19 0 empty empty empty 0 -10 0 12 #fcfcfc #000000 #000000 0 1;
#N canvas 0 50 450 250 (subpatch) 0;
#X array \$0-array1 16 float 2;
#X coords 0 1 16 -1 200 140 1 0 0;
#X restore 332 26 graph;
#X obj 432 228 array define foo 10;
#X floatatom 331 177 5 0 0 0 - - - 0;
#X obj 346 460 artnetudp;
#X msg 433 431 localhost;
#X msg 347 258 nicinfo;
#X floatatom 250 486 5 0 0 0 - - - 0;
#X obj 238 566 artnettoarray;
#N canvas 0 50 450 250 (subpatch) 0;
#X array \$0-fromartnet 16 float 2;
#X coords 0 1 16 -1 200 140 1 0 0;
#X restore 702 426 graph;
#X obj 84 285 cnv 10 10 10 empty empty empty 20 12 0 12 #00ff04 #404040 0;
#X obj 146 380 cnv 10 10 10 empty empty empty 20 12 0 12 #00ff04 #404040 0;
#X obj 329 465 cnv 10 10 10 empty empty empty 20 12 0 12 #00ff04 #404040 0;
#X obj 223 533 cnv 10 10 10 empty empty empty 20 12 0 12 #00ff04 #404040 0;
#X obj 222 570 cnv 10 10 10 empty empty empty 20 12 0 12 #00ff04 #404040 0;
#X obj 325 591 change;
#X msg 463 395 usenic \$1;
#X msg 409 353 targetip \$1;
#X symbolatom 462 374 14 0 0 0 - - - 0;
#X symbolatom 409 332 18 0 0 0 - - - 0;
#X msg 66 138 poll 20;
#X obj 198 181 tgl 19 0 empty empty empty 0 -10 0 12 #fcfcfc #000000 #000000 0 1;
#X msg 198 204 outputalways \$1;
#X msg 187 232 0.8 0.5 0.4;
#X obj 523 417 tgl 19 0 empty empty empty 0 -10 0 12 #fcfcfc #000000 #000000 0 1;
#X msg 522 441 outputalways \$1;
#X msg 363 281 find_nodes;
#X obj 409 517 print nicinfo;
#X obj 385 571 print artnet-node;
#X obj 398 544 print not-dmx;
#X floatatom 182 486 5 0 0 0 - - - 0;
#X obj 238 528 artnetroute 0 0;
#X msg 387 308 find_nodes_all_nics;
#X obj 100 282 artnetfromarray \$0-array1;
#X obj 331 201 array size \$0-array1;
#X obj 241 646 array set \$0-fromartnet;
#X obj 326 618 array size \$0-fromartnet;
#X obj 22 643 declare -lib artnetlib;
#X text 541 333 i.e: 192.168.1.54;
#X text 563 375 i.e: 192.168.1.100;
#X obj 715 72 vsl 19 162 0 1 0 0 empty empty empty 0 -9 0 12 #fcfcfc #000000 #000000 0 1;
#X obj 712 291 array set \$0-array1;
#X floatatom 775 254 5 0 0 0 - - - 0;
#X text 772 222 DMX channel;
#X text 737 107 level;
#X obj 105 194 bng 19 250 50 0 empty empty empty 0 -10 0 12 #fcfcfc #000000 #000000;
#X obj 5 27 symbol \$0-array1;
#X msg 40 51 symbol array2;
#X obj 4 3 bng 19 250 50 0 empty empty empty 0 -10 0 12 #fcfcfc #000000 #000000;
#X msg 69 75 symbol foo;
#X obj 595 22 cnv 10 300 6 empty empty artnetlib 0 0 0 28 #dfdfdf #404040 0;
#X text 594 33 turn your patch into an Art-Net controller.;
#X text 22 590 use this on your top level patch so that the lib gets loaded, f 23;
#N canvas 314 255 626 386 github 0;
#X obj 102 322 pdcontrol;
#X msg 132 219 browse https://github.com/Lucarda/pd-artnetlib;
#X msg 136 269 browse https://github.com/Lucarda/pd-artnetlib/issues;
#X obj 202 110 bng 16 250 50 0 empty empty empty 0 -10 0 12 #fcfcfc #000000 #000000;
#X text 112 109 repository;
#X obj 202 132 bng 16 250 50 0 empty empty empty 0 -10 0 12 #fcfcfc #000000 #000000;
#X text 112 131 bug reports;
#X connect 1 0 0 0;
#X connect 2 0 0 0;
#X connect 3 0 1 0;
#X connect 5 0 2 0;
#X coords 0 -1 1 1 130 60 2 100 100;
#X restore 764 602 pd github;
#X text 248 467 physical;
#X text 180 467 universe;
#X floatatom 257 347 5 0 0 0 - - - 0;
#X floatatom 188 348 5 0 0 0 - - - 0;
#X text 255 327 physical;
#X text 186 327 universe;
#X obj 162 377 artnetsend 0 0;
#N canvas 345 241 450 300 dip 0;
#X obj 102 201 pdcontrol;
#X msg 102 177 dir 0;
#X obj 103 106 bng 19 250 50 0 empty empty empty 0 -10 0 12 #fcfcfc #000000 #000000;
#X obj 102 141 t b b;
#X text 129 109 DMX dip switch helper;
#X msg 102 226 \; pd open dip-switch-helper.pd \$1;
#X connect 0 0 5 0;
#X connect 1 0 0 0;
#X connect 2 0 3 0;
#X connect 3 0 1 0;
#X coords 0 -1 1 1 190 30 2 100 100;
#X restore 547 631 pd dip;
#X connect 0 0 39 0;
#X connect 1 0 39 0;
#X connect 2 0 39 0;
#X connect 3 0 4 0;
#X connect 4 0 2 0;
#X connect 5 0 39 0;
#X connect 6 0 5 0;
#X connect 9 0 40 0;
#X connect 10 0 37 0;
#X connect 10 1 34 0;
#X connect 10 2 35 0;
#X connect 10 3 33 0;
#X connect 11 0 10 0;
#X connect 12 0 10 0;
#X connect 13 0 37 2;
#X connect 14 0 41 0;
#X connect 14 1 21 0;
#X connect 21 0 42 0;
#X connect 22 0 10 0;
#X connect 23 0 10 0;
#X connect 24 0 22 0;
#X connect 25 0 23 0;
#X connect 26 0 39 0;
#X connect 27 0 28 0;
#X connect 28 0 39 0;
#X connect 29 0 39 0;
#X connect 30 0 31 0;
#X connect 31 0 10 0;
#X connect 32 0 10 0;
#X connect 36 0 37 1;
#X connect 37 0 14 0;
#X connect 38 0 10 0;
#X connect 39 0 66 0;
#X connect 46 0 47 0;
#X connect 48 0 47 1;
#X connect 51 0 39 0;
#X connect 52 0 1 0;
#X connect 53 0 1 0;
#X connect 54 0 52 0;
#X connect 55 0 1 0;
#X connect 62 0 66 2;
#X connect 63 0 66 1;
#X connect 66 0 10 0;
