#N canvas 321 100 786 578 12;
#X declare -lib artnetlib;
#X obj 119 424 print;
#X text 195 6 <-- use this on your top level patch so that the lib gets loaded;
#X msg 134 294 physical \$1;
#X msg 187 344 universe \$1;
#X floatatom 134 273 5 0 0 0 - - - 0;
#X floatatom 189 323 5 0 0 0 - - - 0;
#X text 287 113 [artnetsend] takes a list of ints (DMX values) and adds an Art-Net v4 protocol header to send DMX values (ArtDmx packet). This header includes the settable n of "universe" (0 to 32768) and the n "physical" (0 to 255). it also auto stamps a "sequence" n (0 to 255)., f 64;
#X msg 61 200 255 255 127 127;
#X text 288 205 what you see in the console are the raw bytes that are later going to be sent via udp;
#X text 288 266 the list of ints is supposed to come from an [artnetfromarray]. if you are suppling directly a list make sure that the list has a multiple of 2 n items (this is an Art-Net specification). this object does not check or auto solves that., f 65;
#X obj 118 391 artnetsend 0 0;
#X text 291 388 creation args: <physical> <universe>;
#X obj 19 6 declare -lib artnetlib;
#X obj 85 498 help-abs;
#X connect 2 0 10 0;
#X connect 3 0 10 0;
#X connect 4 0 2 0;
#X connect 5 0 3 0;
#X connect 7 0 10 0;
#X connect 10 0 0 0;
