#N canvas 248 38 828 652 12;
#X declare -lib artnetlib;
#N canvas 0 50 450 250 (subpatch) 0;
#X array \$0-array1 9 float 3;
#A 0 0 0.157144 0.385713 0.485712 0.614282 0.642851 0.499996 0.328569 0;
#X coords 0 1 9 -1 200 140 1 0 0;
#X restore 519 439 graph;
#X obj 81 523 print;
#X obj 81 474 artnetfromarray \$0-array1;
#X msg 80 186 poll 0;
#X msg 33 128 set \$1;
#X msg 144 261 mainfade \$1;
#X floatatom 145 215 5 0 0 0 - - - 0;
#X obj 145 237 / 100;
#X msg 170 318 fullframe \$1;
#X obj 171 294 tgl 19 0 empty empty empty 0 -10 0 12 #fcfcfc #000000 #000000 0 1;
#X msg 58 159 poll 20;
#X obj 185 355 tgl 19 0 empty empty empty 0 -10 0 12 #fcfcfc #000000 #000000 0 1;
#X msg 185 378 outputalways \$1;
#X msg 193 413 0.8 0.5 0.4;
#X obj 523 614 array size \$0-array1;
#X floatatom 522 588 5 0 0 0 - - - 0;
#X text 331 101 the "poll" method outputs the converted array every <n> milliseconds.;
#X text 330 142 the "mainfade" multiples all values from the converted array on each poll.;
#X text 330 187 the "fullframe" method output 512 values. the ones not provided are just zeros.;
#X text 328 230 the "outputalways" method outputs the converted array on each poll. When set to zero it only outputs if the array changed.;
#X text 328 289 you can also pass a list of floats to the object.;
#X text 329 354 the Art-Net v4 protocol allows to send less than 512 DMX values but each send must have a multiple of 2 n of items. if you have an array of 9 values the object will add an extra zero value.;
#X text 329 46 [artnetfromarray] converts float values from 0 to 1 to 8-bit ints from 0 to 255 . floats less than 0 are clipped to zero and floats grater then 1 are clipped to 1;
#X text 239 510 start polling and move the values in the array with the mouse, f 33;
#X text 476 516 -->;
#X text 133 186 stops polling;
#X text 193 5 <-- use this on your top level patch so that the lib gets loaded;
#X obj 16 6 declare -lib artnetlib;
#X obj 106 588 help-abs;
#X obj 245 442 bng 19 250 50 0 empty empty empty 0 -10 0 12 #fcfcfc #000000 #000000;
#X text 329 320 a "bang" is the same as 1 poll to the array;
#X obj 30 72 symbol \$0-array1;
#X msg 68 100 symbol array2;
#X obj 31 38 bng 19 250 50 0 empty empty empty 0 -10 0 12 #fcfcfc #000000 #000000;
#N canvas 168 182 606 435 poll_rate 0;
#X text 103 161 Art-Net sets a maximum refresh rate for ArtDmx packets that are directed to a given Port-Address. This maximum is defined as the maximum refresh rate that can be achieved on the DMX512-A physical layer with a full 512 channel (data slot) payload. The actual value is 44 packets per second.;
#X restore 346 594 pd poll_rate;
#X connect 2 0 1 0;
#X connect 3 0 2 0;
#X connect 4 0 2 0;
#X connect 5 0 2 0;
#X connect 6 0 7 0;
#X connect 7 0 5 0;
#X connect 8 0 2 0;
#X connect 9 0 8 0;
#X connect 10 0 2 0;
#X connect 11 0 12 0;
#X connect 12 0 2 0;
#X connect 13 0 2 0;
#X connect 15 0 14 0;
#X connect 29 0 2 0;
#X connect 31 0 4 0;
#X connect 32 0 4 0;
#X connect 33 0 31 0;
