#N canvas 219 62 607 519 12;
#X obj 183 31 cnv 19 10 10 empty empty ---\ n\ to\ dip\ --- 20 12 0 16 #ffffff #404040 0;
#X obj 183 293 cnv 19 10 10 empty empty ---\ dip\ to\ n\ --- 20 12 0 16 #ffffff #404040 0;
#X obj 74 65 cnv 19 430 180 empty empty empty 20 12 0 12 #e0e0e0 #404040 0;
#N canvas 104 104 843 538 gop 0;
#X obj 156 183 vradio 19 1 0 2 empty empty empty 0 -10 0 12 #fcfcfc #000000 #000000 0;
#X obj 183 183 vradio 19 1 0 2 empty empty empty 0 -10 0 12 #fcfcfc #000000 #000000 0;
#X obj 213 184 vradio 19 1 0 2 empty empty empty 0 -10 0 12 #fcfcfc #000000 #000000 0;
#X obj 241 184 vradio 19 1 0 2 empty empty empty 0 -10 0 12 #fcfcfc #000000 #000000 0;
#X obj 270 184 vradio 19 1 0 2 empty empty empty 0 -10 0 12 #fcfcfc #000000 #000000 0;
#X obj 298 184 vradio 19 1 0 2 empty empty empty 0 -10 0 12 #fcfcfc #000000 #000000 0;
#X obj 327 184 vradio 19 1 0 2 empty empty empty 0 -10 0 12 #fcfcfc #000000 #000000 0;
#X obj 356 184 vradio 19 1 0 2 empty empty empty 0 -10 0 12 #fcfcfc #000000 #000000 0;
#X obj 383 184 vradio 19 1 0 2 empty empty empty 0 -10 0 12 #fcfcfc #000000 #000000 0;
#X obj 412 184 vradio 19 1 0 2 empty empty empty 0 -10 0 12 #fcfcfc #000000 #000000 0;
#N canvas 52 52 1141 637 dip 0;
#X obj 180 129 >> 1;
#X obj 233 130 >> 2;
#X obj 284 130 >> 3;
#X obj 337 131 >> 4;
#X obj 378 131 >> 5;
#X obj 431 132 >> 6;
#X obj 482 132 >> 7;
#X obj 535 133 >> 8;
#X obj 582 134 >> 9;
#X obj 193 80 t f f f f f f f f f f;
#X obj 132 182 mod 2;
#X obj 180 183 mod 2;
#X obj 231 182 mod 2;
#X obj 279 183 mod 2;
#X obj 327 183 mod 2;
#X obj 375 184 mod 2;
#X obj 426 183 mod 2;
#X obj 473 185 mod 2;
#X obj 527 186 mod 2;
#X obj 575 187 mod 2;
#X obj 557 34 array define \$0-dip 10;
#X obj 151 347 array set \$0-dip;
#X obj 150 315 unpack 0 0;
#X obj 682 259 array get \$0-dip;
#X obj 682 198 +;
#X msg 681 172 1;
#X obj 663 421 pack 0 0;
#X msg 715 171 -1;
#X obj 683 221 t f f;
#X obj 661 371 +;
#X obj 662 394 t f f;
#X obj 358 352 route 0 1 2 3 4 5 6 7 8 9;
#X obj 679 293 t b f;
#X msg 129 232 \$1 0;
#X msg 179 232 \$1 1;
#X msg 229 233 \$1 2;
#X msg 279 233 \$1 3;
#X msg 328 232 \$1 4;
#X msg 378 232 \$1 5;
#X msg 428 233 \$1 6;
#X msg 478 233 \$1 7;
#X msg 529 232 \$1 8;
#X msg 579 232 \$1 9;
#X obj 682 131 until;
#X msg 681 97 10;
#X obj 743 79 t b b b;
#X obj 281 32 t b f;
#X obj 180 480 == 0;
#X obj 219 480 == 0;
#X obj 258 480 == 0;
#X obj 297 480 == 0;
#X obj 336 479 == 0;
#X obj 375 479 == 0;
#X obj 414 479 == 0;
#X obj 453 479 == 0;
#X obj 494 480 == 0;
#X obj 533 480 == 0;
#X obj 435 430 t f f f f f f f f f f;
#X obj 568 371 t b f;
#X obj 661 338 f;
#X obj 694 337 f;
#X obj 75 85 v \$0-dir;
#X obj 848 181 v \$0-dir;
#X obj 847 211 route 0 1;
#X msg 913 266 -1;
#X msg 946 265 10;
#X obj 914 242 t b b;
#X obj 843 240 t b b;
#X msg 842 264 1;
#X msg 875 263 -1;
#X obj 46 55 t b f;
#X obj 178 537 outlet;
#X obj 213 570 outlet;
#X obj 254 535 outlet;
#X obj 289 568 outlet;
#X obj 327 537 outlet;
#X obj 362 570 outlet;
#X obj 403 535 outlet;
#X obj 438 568 outlet;
#X obj 486 536 outlet;
#X obj 521 569 outlet;
#X obj 236 -2 inlet;
#X obj 238 30 f;
#X obj 863 27 inlet;
#X obj 1003 18 inlet;
#X msg 910 389 label on;
#X msg 940 418 label off;
#X obj 915 444 s \$0-onoff;
#X obj 816 571 s \$0-dire;
#X msg 820 516 label 1\ 2\ 3\ 4\ 5\ 6\ 7\ 8\ 9\ 10;
#X msg 833 544 label 10\ 9\ 8\ 7\ 6\ 5\ 4\ 3\ 2\ 1;
#X obj 910 359 route 0 1;
#X obj 828 486 route 0 1;
#X obj 863 54 t f f;
#X obj 997 59 t f f;
#X obj 24 448 loadbang;
#X obj 24 499 t f f f f f f f f f f;
#X msg 23 472 1;
#X connect 0 0 11 0;
#X connect 1 0 12 0;
#X connect 2 0 13 0;
#X connect 3 0 14 0;
#X connect 4 0 15 0;
#X connect 5 0 16 0;
#X connect 6 0 17 0;
#X connect 7 0 18 0;
#X connect 8 0 19 0;
#X connect 9 0 10 0;
#X connect 9 1 0 0;
#X connect 9 2 1 0;
#X connect 9 3 2 0;
#X connect 9 4 3 0;
#X connect 9 5 4 0;
#X connect 9 6 5 0;
#X connect 9 7 6 0;
#X connect 9 8 7 0;
#X connect 9 9 8 0;
#X connect 10 0 33 0;
#X connect 11 0 34 0;
#X connect 12 0 35 0;
#X connect 13 0 36 0;
#X connect 14 0 37 0;
#X connect 15 0 38 0;
#X connect 16 0 39 0;
#X connect 17 0 40 0;
#X connect 18 0 41 0;
#X connect 19 0 42 0;
#X connect 22 0 21 0;
#X connect 22 1 21 1;
#X connect 23 0 32 0;
#X connect 24 0 28 0;
#X connect 25 0 24 0;
#X connect 26 0 31 0;
#X connect 27 0 24 1;
#X connect 28 0 23 0;
#X connect 28 1 24 1;
#X connect 29 0 30 0;
#X connect 30 0 26 0;
#X connect 30 1 29 1;
#X connect 31 0 47 0;
#X connect 31 1 48 0;
#X connect 31 2 49 0;
#X connect 31 3 50 0;
#X connect 31 4 51 0;
#X connect 31 5 52 0;
#X connect 31 6 53 0;
#X connect 31 7 54 0;
#X connect 31 8 55 0;
#X connect 31 9 56 0;
#X connect 32 0 59 0;
#X connect 32 1 26 1;
#X connect 33 0 22 0;
#X connect 34 0 22 0;
#X connect 35 0 22 0;
#X connect 36 0 22 0;
#X connect 37 0 22 0;
#X connect 38 0 22 0;
#X connect 39 0 22 0;
#X connect 40 0 22 0;
#X connect 41 0 22 0;
#X connect 42 0 22 0;
#X connect 43 0 25 0;
#X connect 44 0 43 0;
#X connect 45 0 44 0;
#X connect 45 1 27 0;
#X connect 45 2 62 0;
#X connect 46 0 45 0;
#X connect 46 1 9 0;
#X connect 47 0 71 0;
#X connect 48 0 72 0;
#X connect 49 0 73 0;
#X connect 50 0 74 0;
#X connect 51 0 75 0;
#X connect 52 0 76 0;
#X connect 53 0 77 0;
#X connect 54 0 78 0;
#X connect 55 0 79 0;
#X connect 56 0 80 0;
#X connect 57 0 47 1;
#X connect 57 1 48 1;
#X connect 57 2 49 1;
#X connect 57 3 50 1;
#X connect 57 4 51 1;
#X connect 57 5 52 1;
#X connect 57 6 53 1;
#X connect 57 7 54 1;
#X connect 57 8 55 1;
#X connect 57 9 56 1;
#X connect 58 0 82 0;
#X connect 58 1 57 0;
#X connect 59 0 29 0;
#X connect 60 0 29 1;
#X connect 62 0 63 0;
#X connect 63 0 67 0;
#X connect 63 1 66 0;
#X connect 64 0 59 1;
#X connect 65 0 60 0;
#X connect 66 0 64 0;
#X connect 66 1 65 0;
#X connect 67 0 68 0;
#X connect 67 1 69 0;
#X connect 68 0 59 1;
#X connect 69 0 60 0;
#X connect 70 0 82 0;
#X connect 70 1 61 0;
#X connect 81 0 82 0;
#X connect 82 0 46 0;
#X connect 83 0 93 0;
#X connect 84 0 94 0;
#X connect 85 0 87 0;
#X connect 86 0 87 0;
#X connect 89 0 88 0;
#X connect 90 0 88 0;
#X connect 91 0 85 0;
#X connect 91 1 86 0;
#X connect 92 0 89 0;
#X connect 92 1 90 0;
#X connect 93 0 58 0;
#X connect 93 1 91 0;
#X connect 94 0 70 0;
#X connect 94 1 92 0;
#X connect 95 0 97 0;
#X connect 96 0 71 0;
#X connect 96 1 72 0;
#X connect 96 2 73 0;
#X connect 96 3 74 0;
#X connect 96 4 75 0;
#X connect 96 5 76 0;
#X connect 96 6 77 0;
#X connect 96 7 78 0;
#X connect 96 8 79 0;
#X connect 96 9 80 0;
#X connect 97 0 96 0;
#X restore 164 154 pd dip;
#X f 34;
#X obj 281 128 tgl 19 0 empty empty on/off 24 10 0 16 #fcfcfc #000000 #000000 0 1;
#X obj 399 129 tgl 19 0 empty empty direction 24 10 0 16 #fcfcfc #000000 #000000 0 1;
#X floatatom 164 118 5 0 512 0 - - - 24;
#X obj 107 191 cnv 19 10 10 empty \$0-onoff on 0 0 0 24 #dfdfdf #404040 0;
#X obj 153 244 cnv 19 10 10 empty \$0-dire 1\ 2\ 3\ 4\ 5\ 6\ 7\ 8\ 9\ 10 0 0 0 24 #dfdfdf #404040 0;
#X connect 10 0 0 0;
#X connect 10 1 1 0;
#X connect 10 2 2 0;
#X connect 10 3 3 0;
#X connect 10 4 4 0;
#X connect 10 5 5 0;
#X connect 10 6 6 0;
#X connect 10 7 7 0;
#X connect 10 8 8 0;
#X connect 10 9 9 0;
#X connect 11 0 10 1;
#X connect 12 0 10 2;
#X connect 13 0 10 0;
#X coords 0 -1 1 1 430 180 2 100 100;
#X restore 73 66 pd gop;
#X obj 73 325 cnv 19 430 130 empty empty empty 20 12 0 12 #e0e0e0 #404040 0;
#N canvas 172 76 1077 616 dip2n 0;
#X obj 155 433 unpack 0 0;
#X msg 140 358 \$1 0;
#X msg 190 358 \$1 1;
#X msg 240 359 \$1 2;
#X msg 290 359 \$1 3;
#X msg 339 358 \$1 4;
#X msg 389 358 \$1 5;
#X msg 439 359 \$1 6;
#X msg 489 359 \$1 7;
#X msg 540 358 \$1 8;
#X msg 590 358 \$1 9;
#X obj 155 490 array set \$0-dip2na;
#X obj 622 44 array define \$0-dip2na 10;
#X obj 162 109 vradio 19 1 0 2 empty empty empty 0 -10 0 12 #fcfcfc #000000 #000000 0;
#X obj 189 109 vradio 19 1 0 2 empty empty empty 0 -10 0 12 #fcfcfc #000000 #000000 0;
#X obj 219 110 vradio 19 1 0 2 empty empty empty 0 -10 0 12 #fcfcfc #000000 #000000 0;
#X obj 247 110 vradio 19 1 0 2 empty empty empty 0 -10 0 12 #fcfcfc #000000 #000000 0;
#X obj 276 110 vradio 19 1 0 2 empty empty empty 0 -10 0 12 #fcfcfc #000000 #000000 0;
#X obj 304 110 vradio 19 1 0 2 empty empty empty 0 -10 0 12 #fcfcfc #000000 #000000 0;
#X obj 333 110 vradio 19 1 0 2 empty empty empty 0 -10 0 12 #fcfcfc #000000 #000000 0;
#X obj 362 110 vradio 19 1 0 2 empty empty empty 0 -10 0 12 #fcfcfc #000000 #000000 0;
#X obj 389 110 vradio 19 1 0 2 empty empty empty 0 -10 0 12 #fcfcfc #000000 #000000 0;
#X obj 418 110 vradio 19 1 0 2 empty empty empty 0 -10 0 12 #fcfcfc #000000 #000000 0;
#X obj 625 74 array define \$0-dip2nb 10;
#X obj 605 485 v \$0-dirx;
#X obj 675 268 v \$0-onoffx;
#X obj 131 460 t b f;
#X obj 159 170 cnv 19 10 10 empty \$0-direxx 1\ 2\ 3\ 4\ 5\ 6\ 7\ 8\ 9\ 10 0 0 0 24 #dfdfdf #404040 0;
#X obj 113 117 cnv 19 10 10 empty \$0-onoffxx on 0 0 0 24 #dfdfdf #404040 0;
#X obj 239 202 tgl 19 0 empty empty on/off 24 10 0 16 #fcfcfc #000000 #000000 0 1;
#X obj 357 203 tgl 19 0 empty empty direction 24 10 0 16 #fcfcfc #000000 #000000 0 1;
#X floatatom 122 192 5 0 512 0 - - - 24;
#X msg 705 338 label on;
#X msg 746 370 label off;
#X msg 704 511 label 1\ 2\ 3\ 4\ 5\ 6\ 7\ 8\ 9\ 10;
#X msg 719 534 label 10\ 9\ 8\ 7\ 6\ 5\ 4\ 3\ 2\ 1;
#X obj 710 298 route 0 1;
#X obj 701 480 route 0 1;
#X obj 702 561 s \$0-direxx;
#X obj 730 417 s \$0-onoffxx;
#X obj 654 224 t b f f;
#X obj 596 417 t b f f;
#X obj 539 487 b;
#N canvas 231 209 966 462 plus 0;
#X obj 97 157 unpack 0 0 0 0 0 0 0 0 0 0;
#X obj 453 238 << 9;
#X obj 408 238 << 8;
#X obj 364 239 << 7;
#X obj 319 239 << 6;
#X obj 275 238 << 5;
#X obj 230 238 << 4;
#X obj 186 239 << 3;
#X obj 141 239 << 2;
#X obj 99 239 << 1;
#X obj 69 316 expr $f1+$f2+$f3+$f4+$f5+$f6+$f7+$f8+$f9+$f10;
#X obj 50 4 inlet;
#X obj 173 406 outlet;
#X obj 543 108 +;
#X msg 542 82 1;
#X msg 576 81 -1;
#X obj 544 131 t f f;
#X obj 542 56 until;
#X msg 545 29 10;
#X obj 544 173 array get \$0-dip2na 0 1;
#X obj 774 107 route 0 1;
#X msg 840 162 -1;
#X msg 873 161 10;
#X obj 841 138 t b b;
#X obj 770 136 t b b;
#X msg 769 160 1;
#X msg 802 159 -1;
#X obj 775 77 v \$0-dirx;
#X obj 548 324 +;
#X obj 551 352 t f f;
#X obj 548 291 f;
#X obj 581 290 f;
#X obj 69 85 array get \$0-dip2nb 0 -1;
#X obj 549 419 array set \$0-dip2nb 0 1;
#X obj 528 250 t f b;
#X obj 136 39 t b b;
#X obj 650 116 v \$0-onoffx;
#X obj 567 4 t b b b b;
#X obj 549 209 ==;
#X connect 0 0 10 0;
#X connect 0 1 9 0;
#X connect 0 2 8 0;
#X connect 0 3 7 0;
#X connect 0 4 6 0;
#X connect 0 5 5 0;
#X connect 0 6 4 0;
#X connect 0 7 3 0;
#X connect 0 8 2 0;
#X connect 0 9 1 0;
#X connect 1 0 10 9;
#X connect 2 0 10 8;
#X connect 3 0 10 7;
#X connect 4 0 10 6;
#X connect 5 0 10 5;
#X connect 6 0 10 4;
#X connect 7 0 10 3;
#X connect 8 0 10 2;
#X connect 9 0 10 1;
#X connect 10 0 12 0;
#X connect 11 0 35 0;
#X connect 13 0 16 0;
#X connect 14 0 13 0;
#X connect 15 0 13 1;
#X connect 16 0 19 0;
#X connect 16 1 13 1;
#X connect 17 0 14 0;
#X connect 18 0 17 0;
#X connect 19 0 38 0;
#X connect 20 0 24 0;
#X connect 20 1 23 0;
#X connect 21 0 30 1;
#X connect 22 0 31 0;
#X connect 23 0 21 0;
#X connect 23 1 22 0;
#X connect 24 0 25 0;
#X connect 24 1 26 0;
#X connect 25 0 30 1;
#X connect 26 0 31 0;
#X connect 27 0 20 0;
#X connect 28 0 29 0;
#X connect 29 0 33 1;
#X connect 29 1 28 1;
#X connect 30 0 28 0;
#X connect 31 0 28 1;
#X connect 32 0 0 0;
#X connect 34 0 33 0;
#X connect 34 1 30 0;
#X connect 35 0 32 0;
#X connect 35 1 37 0;
#X connect 36 0 38 1;
#X connect 37 0 18 0;
#X connect 37 1 36 0;
#X connect 37 2 27 0;
#X connect 37 3 15 0;
#X connect 38 0 34 0;
#X restore 107 562 pd plus;
#X obj 107 4 loadbang;
#X obj 107 55 t f f f f f f f f f f;
#X msg 106 28 1;
#X connect 0 0 26 0;
#X connect 0 1 11 1;
#X connect 1 0 0 0;
#X connect 2 0 0 0;
#X connect 3 0 0 0;
#X connect 4 0 0 0;
#X connect 5 0 0 0;
#X connect 6 0 0 0;
#X connect 7 0 0 0;
#X connect 8 0 0 0;
#X connect 9 0 0 0;
#X connect 10 0 0 0;
#X connect 13 0 1 0;
#X connect 14 0 2 0;
#X connect 15 0 3 0;
#X connect 16 0 4 0;
#X connect 17 0 5 0;
#X connect 18 0 6 0;
#X connect 19 0 7 0;
#X connect 20 0 8 0;
#X connect 21 0 9 0;
#X connect 22 0 10 0;
#X connect 26 0 43 0;
#X connect 26 1 11 0;
#X connect 29 0 40 0;
#X connect 30 0 41 0;
#X connect 32 0 39 0;
#X connect 33 0 39 0;
#X connect 34 0 38 0;
#X connect 35 0 38 0;
#X connect 36 0 32 0;
#X connect 36 1 33 0;
#X connect 37 0 34 0;
#X connect 37 1 35 0;
#X connect 40 0 42 0;
#X connect 40 1 25 0;
#X connect 40 2 36 0;
#X connect 41 0 42 0;
#X connect 41 1 24 0;
#X connect 41 2 37 0;
#X connect 42 0 43 0;
#X connect 43 0 31 0;
#X connect 44 0 46 0;
#X connect 45 0 13 0;
#X connect 45 1 14 0;
#X connect 45 2 15 0;
#X connect 45 3 16 0;
#X connect 45 4 17 0;
#X connect 45 5 18 0;
#X connect 45 6 19 0;
#X connect 45 7 20 0;
#X connect 45 8 21 0;
#X connect 45 9 22 0;
#X connect 46 0 45 0;
#X coords 0 -1 1 1 430 130 2 100 100;
#X restore 73 326 pd dip2n;
#X f 35;
